<?xml version="1.0" encoding="UTF-8" standalone="no"?>
<svg
   xmlns:dc="http://purl.org/dc/elements/1.1/"
   xmlns:cc="http://creativecommons.org/ns#"
   xmlns:rdf="http://www.w3.org/1999/02/22-rdf-syntax-ns#"
   xmlns:svg="http://www.w3.org/2000/svg"
   xmlns="http://www.w3.org/2000/svg"
   xmlns:sodipodi="http://sodipodi.sourceforge.net/DTD/sodipodi-0.dtd"
   xmlns:inkscape="http://www.inkscape.org/namespaces/inkscape"
   enable-background="new 0 0 512 512"
   height="512px"
   id="Layer_1"
   version="1.1"
   viewBox="0 0 512 512"
   width="512px"
   xml:space="preserve"
   inkscape:version="0.91 r13725"
   sodipodi:docname="edit_w.svg"><metadata
     id="metadata9"><rdf:RDF><cc:Work
         rdf:about=""><dc:format>image/svg+xml</dc:format><dc:type
           rdf:resource="http://purl.org/dc/dcmitype/StillImage" /><dc:title></dc:title></cc:Work></rdf:RDF></metadata><defs
     id="defs7" /><sodipodi:namedview
     pagecolor="#ffffff"
     bordercolor="#666666"
     borderopacity="1"
     objecttolerance="10"
     gridtolerance="10"
     guidetolerance="10"
     inkscape:pageopacity="0"
     inkscape:pageshadow="2"
     inkscape:window-width="1366"
     inkscape:window-height="705"
     id="namedview5"
     showgrid="false"
     inkscape:zoom="0.4609375"
     inkscape:cx="256"
     inkscape:cy="256"
     inkscape:window-x="-8"
     inkscape:window-y="-8"
     inkscape:window-maximized="1"
     inkscape:current-layer="Layer_1" /><path
     d="M496.487,15.3c-6.375-6.365-14.737-9.552-23.089-9.552c-8.362,0-16.713,3.187-23.078,9.552l-96.042,96.032  V93.141H6.108v413.446H419.56V158.423h-20.018l96.945-96.957C509.249,48.737,509.249,28.051,496.487,15.3z M397.8,484.827H27.869  V114.902h322.85L180.193,285.417v47.091h45.285L397.8,160.165V484.827z M481.101,46.081L216.468,310.747h-14.514v-16.32  L465.717,30.675c2.763-2.763,5.993-3.166,7.682-3.166c1.69,0,4.931,0.413,7.703,3.187c2.784,2.773,3.199,6.015,3.199,7.703  C484.3,40.078,483.886,43.297,481.101,46.081z"
     fill="#37404D"
     id="path3"
     style="fill:#ffffff" /></svg>