<?xml version="1.0" encoding="UTF-8" standalone="no"?>
<!-- Created with Inkscape (http://www.inkscape.org/) -->

<svg
   xmlns:dc="http://purl.org/dc/elements/1.1/"
   xmlns:cc="http://creativecommons.org/ns#"
   xmlns:rdf="http://www.w3.org/1999/02/22-rdf-syntax-ns#"
   xmlns:svg="http://www.w3.org/2000/svg"
   xmlns="http://www.w3.org/2000/svg"
   xmlns:sodipodi="http://sodipodi.sourceforge.net/DTD/sodipodi-0.dtd"
   xmlns:inkscape="http://www.inkscape.org/namespaces/inkscape"
   id="svg4136"
   version="1.1"
   inkscape:version="0.91 r13725"
   width="511.64383"
   height="511.64383"
   viewBox="0 0 511.64383 511.64383"
   sodipodi:docname="home.svg">
  <metadata
     id="metadata4142">
    <rdf:RDF>
      <cc:Work
         rdf:about="">
        <dc:format>image/svg+xml</dc:format>
        <dc:type
           rdf:resource="http://purl.org/dc/dcmitype/StillImage" />
        <dc:title></dc:title>
      </cc:Work>
    </rdf:RDF>
  </metadata>
  <defs
     id="defs4140" />
  <sodipodi:namedview
     pagecolor="#ffffff"
     bordercolor="#666666"
     borderopacity="1"
     objecttolerance="10"
     gridtolerance="10"
     guidetolerance="10"
     inkscape:pageopacity="0"
     inkscape:pageshadow="2"
     inkscape:window-width="1366"
     inkscape:window-height="715"
     id="namedview4138"
     showgrid="false"
     inkscape:zoom="0.9537885"
     inkscape:cx="255.82191"
     inkscape:cy="255.82191"
     inkscape:window-x="-8"
     inkscape:window-y="-8"
     inkscape:window-maximized="1"
     inkscape:current-layer="g4146" />
  <g
     id="g4146"
     transform="translate(-45.083365,2.0969007)">
    <path
       style="fill:#353e4b"
       d="m 192.01639,491.9039 -85.37671,-0.10369 0,-121.62425 0,-121.62424 -1.41875,-0.26616 c -0.78032,-0.14639 -12.615952,-0.201 -26.301417,-0.12136 l -24.882666,0.1448 0.008,-10.89041 0.008,-10.89041 10.1462,-8.63014 c 10.38845,-8.83619 46.933673,-39.98199 53.947883,-45.97728 2.14726,-1.83534 4.08904,-3.54443 4.31507,-3.79798 0.22602,-0.25354 5.58904,-4.86718 11.91781,-10.25251 6.32876,-5.38534 11.59931,-9.90442 11.71232,-10.0424 0.11302,-0.13798 2.70206,-2.35714 5.75343,-4.93148 3.05137,-2.57434 8.04452,-6.82556 11.09589,-9.44715 5.51155,-4.73527 10.95397,-9.37573 46.02739,-39.245099 10.05822,-8.565829 22.63357,-19.290989 27.94521,-23.8337 5.31164,-4.542707 16.7774,-14.342133 25.47945,-21.776499 8.70207,-7.434369 16.83905,-14.393216 18.0822,-15.464107 1.24315,-1.070891 4.91873,-4.227231 8.16795,-7.014089 3.24923,-2.786858 6.94786,-5.960088 8.21918,-7.051623 1.27133,-1.091535 2.91235,-2.454098 3.64671,-3.027918 l 1.33521,-1.04331 2.61465,2.206 c 1.43806,1.213301 3.50933,2.945727 4.60283,3.849837 1.09349,0.904109 2.93124,2.476027 4.08389,3.49315 1.15264,1.017124 11.41849,9.80137 22.81298,19.520548 11.3945,9.719178 25.16287,21.471181 30.59639,26.115559 12.73036,10.881468 31.87835,27.158782 32.73799,27.829881 0.3669,0.28643 0.96542,0.40631 1.33005,0.26639 0.58812,-0.22568 0.67519,-1.769109 0.77127,-13.671474 l 0.1083,-13.417069 27.63698,-0.105632 27.63699,-0.105633 0,37.586288 c 0,26.46616 0.13361,37.86558 0.4516,38.53029 0.24839,0.5192 5.28777,5.05299 11.19863,10.07508 5.91087,5.0221 11.31288,9.64539 12.00452,10.27397 3.37131,3.06411 62.9887,53.87713 67.54537,57.5702 l 1.67659,1.35883 4e-5,10.96994 4e-5,10.96995 -24.88265,-0.1448 c -13.68547,-0.0796 -25.52108,-0.025 -26.30141,0.12136 l -1.41876,0.26616 0,121.57407 0,121.57407 -46.95205,0.30337 c -25.82363,0.16685 -75.24658,0.23609 -109.82877,0.1539 -34.58219,-0.0822 -101.29624,-0.19619 -148.25343,-0.25323 z m 283.97331,-143.00884 0.1034,-121.7427 20.23906,-0.10661 c 19.88663,-0.10476 20.241,-0.12092 20.35225,-0.92853 0.0845,-0.61358 -1.42007,-2.12406 -5.93573,-5.95891 -3.32696,-2.82534 -14.29569,-12.16438 -24.37504,-20.75342 -10.07934,-8.58904 -25.48528,-21.70752 -34.23548,-29.15218 l -15.90943,-13.53575 0,-31.72215 c 0,-26.52102 -0.0933,-31.799579 -0.56902,-32.194389 -0.38811,-0.32211 -2.5765,-0.43609 -6.88356,-0.35854 l -6.31455,0.1137 -0.20548,26.032819 -0.20548,26.03282 -11.9178,-10.14976 c -6.5548,-5.58237 -13.76713,-11.76032 -16.0274,-13.72879 -2.26028,-1.96847 -9.84247,-8.45884 -16.84932,-14.42305 -7.00685,-5.96421 -16.99315,-14.480449 -22.19178,-18.924993 -5.19863,-4.444537 -14.16781,-12.096653 -19.9315,-17.004703 -5.7637,-4.908049 -15.14996,-12.926108 -20.85835,-17.817912 -5.70839,-4.8918 -10.84024,-9.174111 -11.40411,-9.516246 -0.91542,-0.555444 -1.13501,-0.555444 -2.05043,0 -0.56387,0.342135 -5.69572,4.624446 -11.40411,9.516246 -5.70839,4.891804 -15.09465,12.909863 -20.85836,17.817912 -5.76369,4.90805 -14.73287,12.560166 -19.9315,17.004703 -5.19863,4.444544 -15.18493,12.960783 -22.19178,18.924993 -7.00685,5.96421 -14.58904,12.45383 -16.84932,14.42137 -4.27215,3.71886 -25.26903,21.63375 -56.30137,48.03727 -9.9452,8.46177 -26.21917,22.31847 -36.16438,30.79266 -9.9452,8.4742 -20.813907,17.7289 -24.152673,20.56601 -4.525857,3.84583 -6.042092,5.36751 -5.958904,5.98029 0.10964,0.80763 0.46336,0.82377 20.351307,0.92853 l 20.23972,0.10661 0,121.57147 c 0,66.8643 0.12351,121.69497 0.27446,121.84592 0.15095,0.15094 78.51567,0.228 174.14384,0.17125 l 173.86938,-0.10324 0.10344,-121.7427 z"
       id="path4148"
       inkscape:connector-curvature="0" />
  </g>
</svg>
