<?xml version="1.0" encoding="UTF-8" standalone="no"?>
<!-- Created with Inkscape (http://www.inkscape.org/) -->

<svg
   xmlns:dc="http://purl.org/dc/elements/1.1/"
   xmlns:cc="http://creativecommons.org/ns#"
   xmlns:rdf="http://www.w3.org/1999/02/22-rdf-syntax-ns#"
   xmlns:svg="http://www.w3.org/2000/svg"
   xmlns="http://www.w3.org/2000/svg"
   xmlns:sodipodi="http://sodipodi.sourceforge.net/DTD/sodipodi-0.dtd"
   xmlns:inkscape="http://www.inkscape.org/namespaces/inkscape"
   id="svg4164"
   version="1.1"
   inkscape:version="0.91 r13725"
   width="511.64383"
   height="511.64383"
   viewBox="0 0 511.64383 511.64383"
   sodipodi:docname="home_sel_w.svg">
  <metadata
     id="metadata4170">
    <rdf:RDF>
      <cc:Work
         rdf:about="">
        <dc:format>image/svg+xml</dc:format>
        <dc:type
           rdf:resource="http://purl.org/dc/dcmitype/StillImage" />
        <dc:title></dc:title>
      </cc:Work>
    </rdf:RDF>
  </metadata>
  <defs
     id="defs4168" />
  <sodipodi:namedview
     pagecolor="#ffffff"
     bordercolor="#666666"
     borderopacity="1"
     objecttolerance="10"
     gridtolerance="10"
     guidetolerance="10"
     inkscape:pageopacity="0"
     inkscape:pageshadow="2"
     inkscape:window-width="1366"
     inkscape:window-height="715"
     id="namedview4166"
     showgrid="false"
     inkscape:zoom="0.65231785"
     inkscape:cx="260.15577"
     inkscape:cy="304.55976"
     inkscape:window-x="-8"
     inkscape:window-y="-8"
     inkscape:window-maximized="1"
     inkscape:current-layer="g4714" />
  <g
     id="g4714"
     transform="translate(-125.74298,41.191664)">
    <path
       style="fill:#ffffff"
       d="m 185.93831,333.05038 0,-121.84931 -26.30137,0 -26.30137,0 0,-11.00925 0,-11.00925 7.70548,-6.60584 c 8.73792,-7.49094 30.22178,-25.84626 31.68688,-27.07255 0.53224,-0.44548 4.43267,-3.76887 8.66761,-7.3853 4.23496,-3.61644 10.45702,-8.92989 13.82682,-11.80767 3.3698,-2.87778 6.79848,-5.83669 7.61929,-6.57535 0.82081,-0.73865 3.22448,-2.82246 5.34149,-4.63068 2.11701,-1.80822 4.2511,-3.68082 4.74243,-4.16134 0.49132,-0.48051 1.50889,-1.31057 2.26125,-1.84456 0.75236,-0.53399 4.33581,-3.56208 7.96324,-6.72908 3.62742,-3.16699 17.77468,-15.281085 31.43835,-26.920195 13.66368,-11.63913 25.39784,-21.658707 26.07592,-22.265747 0.67809,-0.60704 6.41096,-5.496324 12.73973,-10.865075 6.32877,-5.368747 12.61644,-10.727926 13.9726,-11.909285 7.55879,-6.584482 20.29062,-17.436583 22.05293,-18.797038 1.12179,-0.865985 2.14029,-1.836875 2.26334,-2.157534 0.12305,-0.320659 0.40458,-0.583015 0.62563,-0.583015 0.37599,0 12.49726,-10.2958982 15.43108,-13.1072712 0.73253,-0.701959 1.51295,-1.276291 1.73427,-1.276291 0.22131,0 0.81257,-0.554794 1.3139,-1.232877 0.50133,-0.678082 1.10789,-1.237775 1.34792,-1.243763 0.24003,-0.006 2.02716,-1.439209 3.9714,-3.184933 1.94424,-1.7457238 4.52114,-4.0062348 5.72644,-5.0233578 1.2053,-1.017124 3.12826,-2.70423 4.27323,-3.749126 3.21841,-2.937084 4.62738,-4.059093 5.09725,-4.059093 0.23709,0 0.68608,-0.364075 0.99776,-0.809054 0.31167,-0.44498 2.45664,-2.389429 4.7666,-4.321 l 4.19992,-3.511945 5.22245,4.398786 c 9.38723,7.906707 10.53993,8.900133 12.61972,10.876016 1.13013,1.073676 2.73889,2.470869 3.57501,3.104873 0.83612,0.634004 3.45644,2.8633508 5.82294,4.9541038 2.3665,2.090754 4.43486,3.80137 4.59635,3.80137 0.1615,0 0.68501,0.430607 1.16336,0.956906 1.47183,1.619342 15.35406,13.4266562 15.78615,13.4266562 0.22364,0 0.50728,0.262356 0.63033,0.583015 0.12305,0.320659 1.14155,1.291549 2.26334,2.157534 1.81499,1.401127 6.37277,5.289945 24.72416,21.095359 16.48918,14.201547 21.22122,18.074319 22.08904,18.077989 l 0.92466,0.004 0,-13.767121 0,-13.767124 27.88572,0 27.88571,0 0.29208,6.007299 c 0.1606,3.304015 0.26671,20.271481 0.23572,37.705473 -0.0308,17.434 -0.0432,32.092115 -0.0271,32.573605 0.0275,0.82684 5.80187,6.22692 10.07338,9.42057 0.89076,0.66597 2.00076,1.58072 2.46674,2.03277 0.46595,0.45206 2.5793,2.30137 4.69632,4.10959 2.11701,1.80822 4.52067,3.89203 5.34148,4.63068 1.45237,1.30702 5.40369,4.69238 21.5919,18.49925 4.31515,3.68036 8.21556,7.01526 8.66762,7.41089 0.45205,0.39562 5.90753,5.05021 12.12328,10.34351 6.21576,5.29331 13.91195,11.85225 17.10263,14.57542 3.19069,2.72316 6.75062,5.68728 7.91096,6.58694 l 2.1097,1.63573 0,11.20369 0,11.2037 -26.19863,0.10578 -26.19863,0.10578 -0.10344,121.74657 -0.10339,121.74658 -195.20481,0 -195.20475,-2e-4 0,-121.84932 z"
       id="path4716"
       inkscape:connector-curvature="0" />
  </g>
</svg>
